# xmcd
#
# Track frame offsets:
#	150
#	26311
#	51675
#	69013
#	94436
#	119849
#	144016
#	169058
#	190412
#
# Disc length: 2949 seconds
#
# Revision: 1
# Processed by: cddbd v1.5.2PL0 Copyright (c) Steve Scherf et al.
# Submitted via: audiograbber 1.83.01
#
DISCID=7e0b8309
DTITLE=Jim LaForte - Catfish Pizza Breakfast
DYEAR=2005
DGENRE=Blues
TTITLE0=Born In Chicago
TTITLE1=K.C. Cats
TTITLE2=You Upset Me - Tired Of Your Jive
TTITLE3=Woke Up This Mornin'
TTITLE4=Early Bird Cafe
TTITLE5=The Blues Is Alright
TTITLE6=Get Outta My Life Woman
TTITLE7=Change Gonna Come
TTITLE8=House Of The Risin' Sun
EXTD=
EXTT0=
EXTT1=
EXTT2=
EXTT3=
EXTT4=
EXTT5=
EXTT6=
EXTT7=
EXTT8=
PLAYORDER=
